<?xml version="1.0" encoding="UTF-8" standalone="no"?>

<svg
   version="1.1"
   id="Layer_1"
   x="0px"
   y="0px"
   width="1980px"
   height="1285px"
   viewBox="0 0 1980 1285"
   style="enable-background:new 0 0 1980 1285;"
   xml:space="preserve"
   sodipodi:docname="mountain-bg.svg"
   inkscape:version="1.1 (c68e22c387, 2021-05-23)"
   xmlns:inkscape="http://www.inkscape.org/namespaces/inkscape"
   xmlns:sodipodi="http://sodipodi.sourceforge.net/DTD/sodipodi-0.dtd"
   xmlns:xlink="http://www.w3.org/1999/xlink"
   xmlns="http://www.w3.org/2000/svg"
   xmlns:svg="http://www.w3.org/2000/svg"><defs
   id="defs461">
	
		<linearGradient
   id="SVGID_1_"
   gradientUnits="userSpaceOnUse"
   x1="1562.8329"
   y1="1966.7227"
   x2="352.97531"
   y2="-828.00342"
   gradientTransform="matrix(1,0,0,-1,0,1286)"
   xlink:href="#SVGID_2_">
		<stop
   offset="0"
   style="stop-color:#B721FF"
   id="stop249" />
		<stop
   offset="1"
   style="stop-color:#21D4FD"
   id="stop251" />
	</linearGradient>
	
	
		<linearGradient
   id="SVGID_2_"
   gradientUnits="userSpaceOnUse"
   x1="75.2692"
   y1="343.8997"
   x2="961.0426"
   y2="1087.1519"
   gradientTransform="matrix(1,0,0,-1,0,1286)">
		<stop
   offset="5.405406e-03"
   style="stop-color:#E9EFFF"
   id="stop256" />
		<stop
   offset="5.459430e-03"
   style="stop-color:#E9EFFF;stop-opacity:0.8587"
   id="stop258" />
		<stop
   offset="1"
   style="stop-color:#E9EFFF;stop-opacity:0"
   id="stop260" />
	</linearGradient>
	
	
		<linearGradient
   id="SVGID_3_"
   gradientUnits="userSpaceOnUse"
   x1="0"
   y1="468.95"
   x2="1980"
   y2="468.95"
   gradientTransform="matrix(1,0,0,-1,0,1286)">
		<stop
   offset="5.405406e-03"
   style="stop-color:#00226D"
   id="stop265" />
		<stop
   offset="0.9757"
   style="stop-color:#0033FF"
   id="stop267" />
	</linearGradient>
	
	
	
	
	
	
	
	
	
	
	
	
	
	
	
	
	
	
	
	
	
	
	
	
	
	
	
	
	
	
	
	
	
	
	
	
	
	
	
	
	
	
	
	
	
	
	
	
	
	
	
	
	
	
	
	
	
	
	
	
<linearGradient
   inkscape:collect="always"
   xlink:href="#SVGID_2_"
   id="linearGradient1959"
   x1="0"
   y1="332.5"
   x2="1980"
   y2="332.5"
   gradientUnits="userSpaceOnUse" /></defs><sodipodi:namedview
   id="namedview459"
   pagecolor="#ffffff"
   bordercolor="#666666"
   borderopacity="1.0"
   inkscape:pageshadow="2"
   inkscape:pageopacity="0.0"
   inkscape:pagecheckerboard="0"
   showgrid="false"
   inkscape:zoom="0.5392721"
   inkscape:cx="744.52211"
   inkscape:cy="719.48837"
   inkscape:window-width="1986"
   inkscape:window-height="1130"
   inkscape:window-x="-2054"
   inkscape:window-y="-6"
   inkscape:window-maximized="1"
   inkscape:current-layer="Layer_1" />
<style
   type="text/css"
   id="style247">
	.st0{fill:url(#SVGID_1_);}
	.st1{opacity:0.2;fill:url(#SVGID_2_);enable-background:new    ;}
	.st2{opacity:0.5;fill:url(#SVGID_3_);enable-background:new    ;}
	.st3{clip-path:url(#SVGID_5_);}
	.st4{fill:#0B00AA;}
	.st5{opacity:0.4;fill:#0B00AA;enable-background:new    ;}
	.st6{opacity:0.8;}
	.st7{fill:#FFFFFF;}
	.st8{opacity:0.3;fill:#0B00AA;enable-background:new    ;}
	.st9{opacity:0.2;fill:#280055;enable-background:new    ;}
	.st10{clip-path:url(#SVGID_7_);fill:#0B00AA;}
</style>
<g
   id="g6851"><rect
     class="st0"
     width="1980"
     height="1285"
     id="rect254"
     style="fill:#4f9bff;fill-opacity:1"
     x="0"
     y="0" /><polygon
     class="st1"
     points="312.6,610.9 392.8,572.7 451.5,567 526.1,511.9 727.2,572.7 1094.1,643 1156.6,665 1362.6,586 1368.1,568 1372.1,582.3 1584.1,501 1591.2,478 1596.3,496.3 1601.4,494.4 1613.6,454.7 1622.4,486.3 1898.2,380.5 1905.4,357 1910.7,375.7 1980,349.1 1980,0 0,0 0,351.1 0,554.6 121.7,535 "
     id="polygon263"
     style="fill:url(#linearGradient1959);fill-opacity:1.0" /><polygon
     class="st2"
     points="1898.2,380.5 1622.4,486.3 1613.6,454.7 1601.4,494.4 1596.3,496.3 1591.2,478 1584.1,501 1372.1,582.3 1368.1,568 1362.6,586 1103.4,685.4 1095.3,656.7 1084.2,692.8 1078.5,695 1073,675.3 1065.3,700 0,1108.7 0,1285 1980,1285 1980,349.1 1910.7,375.7 1905.4,357 "
     id="polygon270"
     style="fill:url(#SVGID_3_)" /><g
     id="g316">
		<g
   id="g314">
			<defs
   id="defs273">
				<rect
   id="SVGID_4_"
   x="1548.4"
   y="1013"
   width="431.60001"
   height="272" />
			</defs>
			<clipPath
   id="SVGID_5_">
				<use
   xlink:href="#SVGID_4_"
   style="overflow:visible"
   id="use275"
   x="0"
   y="0"
   width="100%"
   height="100%" />
			</clipPath>
			<g
   class="st3"
   clip-path="url(#SVGID_5_)"
   id="g312">
				<polygon
   class="st4"
   points="1688.7,1215 1639.3,1211.3 1664.7,1129.4 "
   id="polygon278" />
				<polygon
   class="st4"
   points="1718.4,1249 1669.1,1245.3 1694.4,1163.3 "
   id="polygon280" />
				<polygon
   class="st4"
   points="1664,1254.2 1614.7,1250.5 1640,1168.5 "
   id="polygon282" />
				<polygon
   class="st4"
   points="1634,1291.8 1584.7,1288.1 1610,1206.2 "
   id="polygon284" />
				<polygon
   class="st4"
   points="1609.3,1314.3 1560,1310.6 1585.3,1228.6 "
   id="polygon286" />
				<polygon
   class="st4"
   points="1749.1,1233.2 1699.8,1229.5 1725.1,1147.5 "
   id="polygon288" />
				<polygon
   class="st4"
   points="1789.2,1215 1739.9,1211.3 1765.2,1129.4 "
   id="polygon290" />
				<polygon
   class="st4"
   points="1813.9,1203.3 1764.5,1199.6 1789.9,1117.6 "
   id="polygon292" />
				<polygon
   class="st4"
   points="1838.5,1242.6 1789.2,1238.9 1814.5,1156.9 "
   id="polygon294" />
				<polygon
   class="st4"
   points="1856.5,1231.4 1807.1,1227.7 1832.5,1145.8 "
   id="polygon296" />
				<polygon
   class="st4"
   points="1886.9,1215.5 1837.5,1211.8 1862.9,1129.8 "
   id="polygon298" />
				<polygon
   class="st4"
   points="1919.9,1194.1 1870.5,1190.5 1895.9,1108.5 "
   id="polygon300" />
				<polygon
   class="st4"
   points="1953.2,1171.4 1903.8,1167.7 1929.2,1085.7 "
   id="polygon302" />
				<polygon
   class="st4"
   points="1981.6,1160.4 1932.3,1156.7 1957.6,1074.7 "
   id="polygon304" />
				<polygon
   class="st4"
   points="1964.6,1180.9 1915.3,1177.2 1940.6,1095.2 "
   id="polygon306" />
				<polygon
   class="st4"
   points="2010.5,1188.6 1961.1,1184.9 1986.5,1102.9 "
   id="polygon308" />
				<polygon
   class="st4"
   points="1656.7,1199.7 1688.7,1207 1733.7,1215.5 1762.1,1194.3 1817.5,1194.3 1870.5,1179.8 1886.9,1168.5 1934.9,1148.3 1957,1139.9 1985.8,1160.5 1980,1285 1586.9,1285 1634,1231.4 "
   id="polygon310" />
			</g>
		</g>
	</g><g
     id="g324">
		<polygon
   class="st5"
   points="1547.5,851.6 1499.7,908.7 1493.4,886.4 1482.3,922.3 1481.7,922.6 1475.6,900.6 1466.2,931 1356.8,990 1260.7,1059.1 1184.3,1177.1 1010.8,1285 1056.2,1285 1230.7,1166.1 1272.8,1074.8 1383.6,1023.2 1522.3,982.7 1604,960.7 1623.2,914.7 1722.2,789.8 1626.5,757.2 1565.9,829.6 1560.4,809.8 "
   id="polygon318" />
		<polygon
   class="st5"
   points="1898.2,645.5 1887.5,607.3 1876.4,643.1 1831.8,630.1 1724.5,697.6 1741.1,815.8 1851.5,789.1 1918.6,734.2 1953.2,667.7 1960.6,584 1969.6,520 1942.6,564.1 1929.1,630.1 "
   id="polygon320" />
		<polygon
   class="st5"
   points="1886.1,480.8 1904.8,462.9 1953.2,398 1886.9,437.4 1883.2,424.2 1877.5,442.8 1877.8,442.8 1858.9,454.1 1855.5,442 1850.1,459.3 1846.1,461.7 1843,450.5 1838,466.5 1708.5,543.5 1639.3,717.9 1753.6,669.6 1801.3,584.7 1843.7,502.3 "
   id="polygon322" />
	</g><polygon
     class="st8"
     points="1960.5,1030.3 1954.3,1008 1944,1041.4 1937.3,1017.6 1929.6,1042.5 1925.5,1027.8 1919.9,1045.9 1912,1017.6 1903.5,1044.9 1900,1032.2 1887.9,1071.5 1883,1054.1 1872.7,1087.2 1869,1073.7 1855.4,1117.6 1847.5,1089.3 1834.3,1132.1 1826.2,1103.2 1814.5,1141.1 1806.7,1113.1 1791.4,1162.6 1786.4,1167.5 1793.3,1200 1849.1,1205.6 1980,1151.3 1980,1026.7 1971.3,995.5 "
     id="polygon334" /><polygon
     class="st4"
     points="1570.9,572.4 1555,580.8 1564.6,549.8 "
     id="polygon336" /><polygon
     class="st4"
     points="1716.4,489 1700.2,496.2 1709.7,465.3 "
     id="polygon338" /><polygon
     class="st4"
     points="1911.9,890 1895.7,897.2 1905.3,866.2 "
     id="polygon340" /><polygon
     class="st4"
     points="1647.4,1090.5 1631.2,1097.6 1640.8,1066.7 "
     id="polygon342" /><polygon
     class="st4"
     points="1666,1067.4 1649.8,1074.6 1659.3,1043.7 "
     id="polygon344" /><polygon
     class="st4"
     points="1551.1,1090.5 1534.8,1097.6 1544.4,1066.7 "
     id="polygon346" /><polygon
     class="st4"
     points="1888.9,558 1873.2,566.9 1882.7,536 "
     id="polygon348" /><polygon
     class="st4"
     points="1629.3,852.4 1602.9,867.4 1619,815.4 "
     id="polygon350" /><polygon
     class="st4"
     points="1590.8,894.2 1564.3,909.2 1580.4,857.2 "
     id="polygon352" /><polygon
     class="st4"
     points="1604,896.7 1577.6,911.6 1593.6,859.7 "
     id="polygon354" /><polygon
     class="st4"
     points="1445,771.2 1418.6,786.1 1434.6,734.2 "
     id="polygon356" /><polygon
     class="st4"
     points="412.8,1070.1 386.4,1085.1 402.4,1033.1 "
     id="polygon358" /><polygon
     class="st4"
     points="325.8,1238 299.4,1253 315.4,1201 "
     id="polygon360" /><polygon
     class="st4"
     points="1953.2,868.3 1926.8,883.2 1942.8,831.3 "
     id="polygon362" /><polygon
     class="st4"
     points="1676.2,1018.2 1649.8,1033.1 1665.8,981.2 "
     id="polygon364" /><polygon
     class="st4"
     points="1663,1035.4 1636.6,1050.4 1652.6,998.4 "
     id="polygon366" /><polygon
     class="st4"
     points="1918.2,528.2 1903.8,541.9 1913.4,511 "
     id="polygon368" /><polygon
     class="st4"
     points="1500.2,616.6 1483.8,623 1493.4,592.1 "
     id="polygon370" /><polygon
     class="st4"
     points="1411.9,775.3 1395.5,781.7 1405,750.8 "
     id="polygon372" /><polygon
     class="st4"
     points="376.8,1106.6 360.4,1113.1 369.9,1082.1 "
     id="polygon374" /><polygon
     class="st4"
     points="265.8,1149.4 249.4,1155.9 259,1124.9 "
     id="polygon376" /><polygon
     class="st4"
     points="407.8,1106.6 391.3,1113.1 400.9,1082.1 "
     id="polygon378" /><polygon
     class="st4"
     points="487.9,996.9 471.4,1003.3 481,972.4 "
     id="polygon380" /><polygon
     class="st4"
     points="1216.2,715.2 1199.8,721.6 1209.4,690.7 "
     id="polygon382" /><polygon
     class="st4"
     points="1539.1,606.8 1530.5,609.6 1535.5,593.7 "
     id="polygon384" /><polygon
     class="st4"
     points="1684.3,512.7 1676.1,516.9 1681,500.9 "
     id="polygon386" /><polygon
     class="st4"
     points="1864.9,573.1 1856.8,577.6 1861.7,561.7 "
     id="polygon388" /><polygon
     class="st4"
     points="1892.9,559.4 1884.8,564 1889.8,548 "
     id="polygon390" /><polygon
     class="st4"
     points="1881.6,596.1 1873.2,599.7 1878.1,583.7 "
     id="polygon392" /><polygon
     class="st4"
     points="1512.8,655 1504.5,659 1509.5,643 "
     id="polygon394" /><polygon
     class="st4"
     points="1339.7,821 1331.4,825.1 1336.3,809.1 "
     id="polygon396" /><polygon
     class="st4"
     points="1422.7,804 1414.4,808 1419.3,792.1 "
     id="polygon398" /><polygon
     class="st4"
     points="433.3,1089 425.1,1093.1 430,1077.1 "
     id="polygon400" /><polygon
     class="st4"
     points="411.9,1112.7 403.6,1116.7 408.6,1100.7 "
     id="polygon402" /><polygon
     class="st4"
     points="483.8,1193.1 475.5,1197.1 480.4,1181.1 "
     id="polygon404" /><polygon
     class="st4"
     points="113.6,1172.7 105.3,1176.8 110.3,1160.8 "
     id="polygon406" /><polygon
     class="st4"
     points="455.7,991.8 447.4,995.9 452.3,979.9 "
     id="polygon408" /><polygon
     class="st4"
     points="217.7,1209 209.4,1213.1 214.3,1197.1 "
     id="polygon410" /><polygon
     class="st4"
     points="243.4,1164.7 235.1,1168.8 240,1152.8 "
     id="polygon412" /><polygon
     class="st4"
     points="1559.2,887.2 1550.9,891.2 1555.8,875.2 "
     id="polygon414" /><polygon
     class="st4"
     points="1935,905.4 1926.8,909.4 1931.7,893.5 "
     id="polygon416" /><polygon
     class="st4"
     points="1829.9,1012.6 1821.6,1016.6 1826.5,1000.6 "
     id="polygon418" /><polygon
     class="st4"
     points="1593.7,1063.1 1585.5,1067.1 1590.4,1051.1 "
     id="polygon420" /><polygon
     class="st4"
     points="1915.1,885.6 1906.9,889.7 1911.8,873.7 "
     id="polygon422" /><polygon
     class="st4"
     points="1851.1,943.1 1842.8,947.1 1847.8,931.1 "
     id="polygon424" /><polygon
     class="st5"
     points="678.2,1213.1 592,1285 483.8,1284.5 617.1,1181.1 866.3,1103 930.8,997.6 864.8,1160.8 "
     id="polygon426" /><polygon
     class="st4"
     points="1524.9,1115.5 1516.6,1119.5 1521.6,1103.6 "
     id="polygon428" /><polygon
     class="st4"
     points="1704.3,1020.6 1696,1024.6 1701,1008.6 "
     id="polygon430" /><polygon
     class="st4"
     points="1517,1109.5 1508.7,1113.6 1513.6,1097.6 "
     id="polygon432" /><polygon
     class="st4"
     points="1479,612.6 1470.5,615.9 1475.4,599.9 "
     id="polygon434" /><polygon
     class="st5"
     points="282,834.5 281.7,834.4 275.4,811.9 269.5,831 218.2,816.6 214,801.6 210.1,814.3 95.7,782.1 0,826.1 0,1108.7 531.6,904.8 289,836.5 285.4,823.5 "
     id="polygon442" /><g
     id="g454">
		<g
   id="g452">
			<defs
   id="defs445">
				<rect
   id="SVGID_6_"
   x="1374.3"
   y="1201.8"
   width="192.7"
   height="83.300003" />
			</defs>
			<clipPath
   id="SVGID_7_">
				<use
   xlink:href="#SVGID_6_"
   style="overflow:visible"
   id="use447"
   x="0"
   y="0"
   width="100%"
   height="100%" />
			</clipPath>
			<polygon
   class="st10"
   points="1506.1,1287.7 1487.8,1222.4 1466.4,1291.8 1451.8,1239.8 1440.4,1276.7 1432.9,1249.8 1423.8,1279 1420,1265.3 1414.2,1283.8 1403.8,1246.6 1365.1,1371.9 1391.6,1356.9 1381.3,1390.5 1444.9,1354.5 1443.1,1348 1450.2,1344 1449.1,1347.7 1495.7,1321.3 1476.8,1382.5 1540.5,1346.5 1515.5,1257.3 "
   clip-path="url(#SVGID_7_)"
   id="polygon450" />
		</g>
	</g></g>
</svg>
